<?xml version="1.0" encoding="iso-8859-1"?>
<!-- Uploaded to: SVG Repo, www.svgrepo.com, Generator: SVG Repo Mixer Tools -->
<svg height="800px" width="800px" version="1.1" id="Layer_1" xmlns="http://www.w3.org/2000/svg" xmlns:xlink="http://www.w3.org/1999/xlink" 
	 viewBox="0 0 512 512" xml:space="preserve">
<g transform="translate(1 1)">
	<path style="fill:#FFFFFF;" d="M144.067,502.467H75.8c-9.387,0-17.067-7.68-17.067-17.067V24.6c0-9.387,7.68-17.067,17.067-17.067
		h68.267V502.467z"/>
	<path style="fill:#FFDD09;" d="M169.667,502.467H101.4c-9.387,0-17.067-7.68-17.067-17.067V24.6c0-9.387,7.68-17.067,17.067-17.067
		h68.267V502.467z"/>
	<path style="fill:#FD9808;" d="M468.333,502.467H144.067V7.533h324.267c9.387,0,17.067,7.68,17.067,17.067v460.8
		C485.4,494.787,477.72,502.467,468.333,502.467"/>
	<path style="fill:#FFDD09;" d="M442.733,502.467H144.067V7.533h298.667c9.387,0,17.067,7.68,17.067,17.067v460.8
		C459.8,494.787,452.12,502.467,442.733,502.467"/>
	<g>
		<polygon style="fill:#1CD759;" points="314.733,58.733 220.867,152.6 246.467,178.2 314.733,109.933 314.733,109.933 
			314.733,109.933 383,178.2 408.6,152.6 		"/>
		<polygon style="fill:#1CD759;" points="314.733,109.933 263.533,161.133 263.533,229.4 365.933,229.4 365.933,161.133 		"/>
	</g>
	<path d="M468.333,511H144.067c-5.12,0-8.533-3.413-8.533-8.533V7.533c0-5.12,3.413-8.533,8.533-8.533h324.267
		c14.507,0,25.6,11.093,25.6,25.6v460.8C493.933,499.907,482.84,511,468.333,511z M152.6,493.933h315.733
		c5.12,0,8.533-3.413,8.533-8.533V24.6c0-5.12-3.413-8.533-8.533-8.533H152.6V493.933z"/>
	<path d="M144.067,511H75.8c-14.507,0-25.6-11.093-25.6-25.6V24.6C50.2,10.093,61.293-1,75.8-1h68.267
		c5.12,0,8.533,3.413,8.533,8.533v494.933C152.6,507.587,149.187,511,144.067,511z M75.8,16.067c-5.12,0-8.533,3.413-8.533,8.533
		v460.8c0,5.12,3.413,8.533,8.533,8.533h59.733V16.067H75.8z"/>
	<path d="M58.733,109.933c-23.893,0-42.667-18.773-42.667-42.667S34.84,24.6,58.733,24.6S101.4,43.373,101.4,67.267
		c0,5.12-3.413,8.533-8.533,8.533s-8.533-3.413-8.533-8.533c0-14.507-11.093-25.6-25.6-25.6s-25.6,11.093-25.6,25.6
		s11.093,25.6,25.6,25.6c5.12,0,8.533,3.413,8.533,8.533C67.267,106.52,63.853,109.933,58.733,109.933z"/>
	<path d="M58.733,203.8c-23.893,0-42.667-18.773-42.667-42.667s18.773-42.667,42.667-42.667S101.4,137.24,101.4,161.133
		c0,5.12-3.413,8.533-8.533,8.533s-8.533-3.413-8.533-8.533c0-14.507-11.093-25.6-25.6-25.6s-25.6,11.093-25.6,25.6
		c0,14.507,11.093,25.6,25.6,25.6c5.12,0,8.533,3.413,8.533,8.533C67.267,200.387,63.853,203.8,58.733,203.8z"/>
	<path d="M58.733,297.667c-23.893,0-42.667-18.773-42.667-42.667s18.773-42.667,42.667-42.667S101.4,231.107,101.4,255
		c0,5.12-3.413,8.533-8.533,8.533s-8.533-3.413-8.533-8.533c0-14.507-11.093-25.6-25.6-25.6s-25.6,11.093-25.6,25.6
		c0,14.507,11.093,25.6,25.6,25.6c5.12,0,8.533,3.413,8.533,8.533C67.267,294.253,63.853,297.667,58.733,297.667z"/>
	<path d="M58.733,391.533c-23.893,0-42.667-18.773-42.667-42.667c0-23.893,18.773-42.667,42.667-42.667s42.667,18.773,42.667,42.667
		c0,5.12-3.413,8.533-8.533,8.533s-8.533-3.413-8.533-8.533c0-14.507-11.093-25.6-25.6-25.6s-25.6,11.093-25.6,25.6
		c0,14.507,11.093,25.6,25.6,25.6c5.12,0,8.533,3.413,8.533,8.533C67.267,388.12,63.853,391.533,58.733,391.533z"/>
	<path d="M58.733,485.4c-23.893,0-42.667-18.773-42.667-42.667c0-23.893,18.773-42.667,42.667-42.667S101.4,418.84,101.4,442.733
		c0,5.12-3.413,8.533-8.533,8.533s-8.533-3.413-8.533-8.533c0-14.507-11.093-25.6-25.6-25.6s-25.6,11.093-25.6,25.6
		c0,14.507,11.093,25.6,25.6,25.6c5.12,0,8.533,3.413,8.533,8.533C67.267,481.987,63.853,485.4,58.733,485.4z"/>
	<path d="M383,186.733L383,186.733c-2.56,0-4.267-0.853-5.973-2.56l-62.293-62.293l-62.293,62.293
		c-1.707,1.707-3.413,2.56-5.973,2.56l0,0c-2.56,0-4.267-0.853-5.973-2.56l-25.6-25.6c-3.413-3.413-3.413-8.533,0-11.947
		L308.76,52.76c1.707-1.707,3.413-2.56,5.973-2.56l0,0c2.56,0,4.267,0.853,5.973,2.56l93.867,93.867
		c1.707,1.707,2.56,3.413,2.56,5.973s-0.853,4.267-2.56,5.973l-25.6,25.6C387.267,185.88,385.56,186.733,383,186.733z M316.44,101.4
		c1.707,0,3.413,0.853,4.267,2.56L383,166.253l13.653-13.653l-81.92-81.92l-81.92,81.92l13.653,13.653l62.293-62.293
		c1.707-1.707,3.413-2.56,5.973-2.56C315.587,101.4,316.44,101.4,316.44,101.4z"/>
	<path d="M365.933,237.933h-102.4c-5.12,0-8.533-3.413-8.533-8.533v-68.267c0-2.56,0.853-4.267,2.56-5.973l51.2-51.2
		c1.707-1.707,3.413-2.56,5.973-2.56l0,0c2.56,0,4.267,0.853,5.973,2.56l51.2,51.2c1.707,1.707,2.56,3.413,2.56,5.973V229.4
		C374.467,234.52,371.053,237.933,365.933,237.933z M272.067,220.867H357.4v-56.32l-42.667-42.667l-42.667,42.667V220.867z"/>
	<path d="M280.6,323.267h-85.333c-5.12,0-8.533-3.413-8.533-8.533c0-5.12,3.413-8.533,8.533-8.533H280.6
		c5.12,0,8.533,3.413,8.533,8.533C289.133,319.853,285.72,323.267,280.6,323.267z"/>
	<path d="M374.467,323.267h-59.733c-5.12,0-8.533-3.413-8.533-8.533c0-5.12,3.413-8.533,8.533-8.533h59.733
		c5.12,0,8.533,3.413,8.533,8.533C383,319.853,379.587,323.267,374.467,323.267z"/>
	<path d="M434.2,323.267h-25.6c-5.12,0-8.533-3.413-8.533-8.533c0-5.12,3.413-8.533,8.533-8.533h25.6
		c5.12,0,8.533,3.413,8.533,8.533C442.733,319.853,439.32,323.267,434.2,323.267z"/>
	<path d="M434.2,374.467h-59.733c-5.12,0-8.533-3.413-8.533-8.533s3.413-8.533,8.533-8.533H434.2c5.12,0,8.533,3.413,8.533,8.533
		S439.32,374.467,434.2,374.467z"/>
	<path d="M340.333,374.467h-68.267c-5.12,0-8.533-3.413-8.533-8.533s3.413-8.533,8.533-8.533h68.267c5.12,0,8.533,3.413,8.533,8.533
		S345.453,374.467,340.333,374.467z"/>
	<path d="M237.933,374.467h-42.667c-5.12,0-8.533-3.413-8.533-8.533s3.413-8.533,8.533-8.533h42.667c5.12,0,8.533,3.413,8.533,8.533
		S243.053,374.467,237.933,374.467z"/>
	<path d="M255,425.667h-59.733c-5.12,0-8.533-3.413-8.533-8.533s3.413-8.533,8.533-8.533H255c5.12,0,8.533,3.413,8.533,8.533
		S260.12,425.667,255,425.667z"/>
	<path d="M365.933,425.667h-76.8c-5.12,0-8.533-3.413-8.533-8.533s3.413-8.533,8.533-8.533h76.8c5.12,0,8.533,3.413,8.533,8.533
		S371.053,425.667,365.933,425.667z"/>
	<path d="M434.2,425.667h-34.133c-5.12,0-8.533-3.413-8.533-8.533s3.413-8.533,8.533-8.533H434.2c5.12,0,8.533,3.413,8.533,8.533
		S439.32,425.667,434.2,425.667z"/>
</g>
</svg>